/* XPM */
static char *netsurf[] = {
/* columns rows colors chars-per-pixel */
"32 32 205 2 ",
"   c #004F00DD0136",
".  c #01DF06C009D6",
"X  c #04BA0A750DAC",
"o  c #03900CAE126C",
"O  c #0A2B116914B6",
"+  c #034011341A71",
"@  c #0AD415501AB0",
"#  c #050415AD2074",
"$  c #05B91A0C272F",
"%  c #096F1BAD26AF",
"&  c #05FF1B1D28D1",
"*  c #0A0A1F602C74",
"=  c #111D1D7D2316",
"-  c #0E5B21412BE6",
";  c #145125CE2E6B",
":  c #17B0283B2F9D",
">  c #04E9201B3253",
",  c #0B7B25A535C3",
"<  c #06462518399C",
"1  c #0B1B29F43D8E",
"2  c #137C288D33DD",
"3  c #1A432C183409",
"4  c #173F2E833AAA",
"5  c #09752AD1405B",
"6  c #0A83308A4928",
"7  c #1AC736A0453F",
"8  c #0F6F3790510B",
"9  c #0C123DDB5E66",
"0  c #13353B2653D7",
"q  c #18C33EE65546",
"w  c #146B3F8759F7",
"e  c #26B93DB8470C",
"r  c #22C23D5449CA",
"t  c #1DF141AC557A",
"y  c #1A1C457E5F09",
"u  c #245A41A24FB8",
"i  c #2A4242304B6E",
"p  c #2466442F53EC",
"a  c #203047895D6F",
"s  c #2B3D4C6B5BF5",
"d  c #362354675FD6",
"f  c #097F42F66938",
"g  c #1BEA49CF64D5",
"h  c #1AAF4CFF6B33",
"j  c #09FF4A967605",
"k  c #0A414F427DFF",
"l  c #12264EE575E2",
"z  c #143153B97C80",
"x  c #1AE35559794C",
"c  c #1E1D5A487ECD",
"v  c #282C55616E07",
"b  c #30815AF66FE0",
"n  c #276C5EBC7E8D",
"m  c #2E845F1C78D1",
"M  c #0D4552DC80C4",
"N  c #0F215AA58C80",
"B  c #15D357F1825F",
"V  c #1C925C9B841F",
"C  c #163E5BB28872",
"Z  c #0B975F41979E",
"A  c #158F69849FF0",
"S  c #2D12673F87A9",
"D  c #227C64298BA9",
"F  c #252E6E359A07",
"G  c #0B7565ABA2E3",
"H  c #0C2D68FDA800",
"J  c #17ED740DAFAD",
"K  c #0DB06F2AB0CE",
"L  c #14F97612B5C7",
"P  c #0FA277BDBC05",
"I  c #18197C62BDAF",
"U  c #22017337A61B",
"Y  c #31087D5CAA16",
"T  c #4EFC76C484A1",
"R  c #50977C9F8D92",
"E  c #28D580D6B65D",
"W  c #25D18291BC89",
"Q  c #32128598B742",
"!  c #3B068824B384",
"~  c #4F1B82559800",
"^  c #52FD830B963E",
"/  c #3FD18498A993",
"(  c #6796980AA73B",
")  c #67D29B60AD6E",
"_  c #6A6E9A5FA8F0",
"`  c #68A6A1CAB72E",
"'  c #7974AD65BC6B",
"]  c #0ECA81DCCEA0",
"[  c #1B158374C724",
"{  c #13C08478CF95",
"}  c #1ADC87C4CE14",
"|  c #13F48698D2FE",
" . c #211E86A8C723",
".. c #37328FF8C45E",
"X. c #320693F2CE19",
"o. c #26688FBFD2C9",
"O. c #23F39150D7CC",
"+. c #25279489DC06",
"@. c #28D298F8DEFF",
"#. c #33789CE7DCD0",
"$. c #38889DB2D9DD",
"%. c #0F3E922AEADC",
"&. c #14DC93D7E8C3",
"*. c #1C3E9C0BEF57",
"=. c #0FEC9A6DF71C",
"-. c #10549F47FEB5",
";. c #218F9D60EB8D",
":. c #142BA22DFFE7",
">. c #1B53A550FF9F",
",. c #1DEBA830FFFF",
"<. c #2559A097EFA5",
"1. c #39CDA6B7E727",
"2. c #38A0AA0FEE93",
"3. c #2570A2FFF400",
"4. c #20E0A79EFF1C",
"5. c #2512AA13FF35",
"6. c #2C60AD7AFF60",
"7. c #339AAA73F3CB",
"8. c #3084AF06FF1A",
"9. c #2ECFB087FFFF",
"0. c #3F81B24DF5A0",
"q. c #3420B216FFC2",
"w. c #3B7FB572FED1",
"e. c #3D99B8BEFFFF",
"r. c #47539946C53B",
"t. c #43039AE3CCB2",
"y. c #4F0EA03CCA49",
"u. c #5FAAA454C396",
"i. c #5D6DA758CA7F",
"p. c #481BA7A0DDE8",
"a. c #5795AE4FDB75",
"s. c #7DB2B662C793",
"d. c #7D96B7B5C8C6",
"f. c #6A6BB1CED0C4",
"g. c #6E0AB89DD9A6",
"h. c #726FB582D0D9",
"j. c #7DF6BBD2D1AC",
"k. c #74D3BF2DDF34",
"l. c #42C1AF1DEEF8",
"z. c #4992B2A4EF46",
"x. c #5904B772E950",
"c. c #4523B455F4DC",
"v. c #4AD6B4E8F1E3",
"b. c #4DCBB9B9F77A",
"n. c #4323B730FBF0",
"m. c #4374B98DFF7F",
"M. c #4BBDBD8AFFAB",
"N. c #511EB842F22C",
"B. c #5F4EBFCCF269",
"V. c #5071BEAAFD20",
"C. c #6DEFBD3EE150",
"Z. c #4F67C140FFFF",
"A. c #546BC1DBFFA2",
"S. c #5B90C58CFF3B",
"D. c #756DC8C3EE32",
"F. c #7FBECE17EEF4",
"G. c #661CC522F56A",
"H. c #6181C6E7FFE1",
"J. c #6430CAB4FFFC",
"K. c #6B76CDF3FF98",
"L. c #70F3C8DEF21A",
"P. c #72FCCEE8FE47",
"I. c #6FD4D074FFFF",
"U. c #73CCD275FFE7",
"Y. c #7BE0D59CFFF1",
"T. c #7E36D8DDFFFF",
"R. c #8584C3C9D88E",
"E. c #8FC5CFA4E376",
"W. c #81C6CE33ED34",
"Q. c #8AE7D112E9DB",
"!. c #9B90D4E6E39F",
"~. c #943BD961EF2E",
"^. c #9A6ADB01EC88",
"/. c #8C30D8E8F5AC",
"(. c #827CD528FE52",
"). c #8E95D646FF9A",
"_. c #8394DA7DFFFF",
"`. c #8BACDE07FFB3",
"'. c #94D1DC85F4B7",
"]. c #9388DCC2FFEC",
"[. c #9B6EDD62FFB8",
"{. c #A0E9DD1CEBD5",
"}. c #A484DF1BFFB3",
"|. c #9431E327FFE3",
" X c #9B83E661FF96",
".X c #9F08E9A8FFFF",
"XX c #A3A2E620F793",
"oX c #AA23E760F5CF",
"OX c #A234E0F9FFF6",
"+X c #A3F6EB25FFC4",
"@X c #AA53EE98FF8A",
"#X c #B921E6C9FFD7",
"$X c #BF3FE954FFD2",
"%X c #AE47F115FFFF",
"&X c #B4E9F3F5FFFF",
"*X c #C494ECABFFF4",
"=X c #C95EEE24FFF2",
"-X c #CF38F136FFFF",
";X c #D3BFF082FFC7",
":X c #DDFCF560FFF8",
">X c #E50CF750FFF6",
",X c #ECB2FA4AFFFC",
"<X c #F33AFC46FFFC",
"1X c #FE9DFFC9FFFE",
"2X c None",
/* pixels */
"2X2X2X2X2X2X2X2X2X2X2X2X2X2X        2X2X2X2X2X2X2X2X2X2X2X2X2X2X",
"2X2X2X2X2X2X2X2X2X2X    O 3 u s s p 4 @ .   2X2X2X2X2X2X2X2X2X2X",
"2X2X2X2X2X2X2X2X  X e ^ h.W._.T.Y.I.G.a./ a @   2X2X2X2X2X2X2X2X",
"2X2X2X2X2X2X2X  . R '. X|.`._._.Y.U.U.K.J.S.t.g X   2X2X2X2X2X2X",
"2X2X2X2X2X  O d = s.@X X|.|.`._.T.U.U.K.J.K.S.b.Y %   2X2X2X2X2X",
"2X2X2X2X  @ _ ' i ^.+X+X X|.`.`.T.Y.U.K.U.*XY.Z.V.t.,   2X2X2X2X",
"2X2X2X2XO ( %XoX!.%X@X+X.X|.]._._.(.].U.}.1X=X).$X].X.*   2X2X2X",
"2X2X2X  T @X%X&X&X%X@X+X X|.`.`.T.`.>X,X,X1X1X1X1X(.e.E o 2X2X2X",
"2X2X  e ~.@XXX' ^.%X@X.X X|.`._.T.Y.*X1X1X1X1X1X<X[.M.w.x   2X2X",
"2X2XX ` .X+XE.3 d.@X+X.X X|.`.`.T.).-X1X1X1X1X1X1X1X;XH.+.& 2X2X",
"2X  i /. X.Xj.: R.+X X X|.`.`._.].:X1X1X1X1X1X1X1X>X).m.8.z   2X",
"2X  ~ |.|.|.Q.) '. X|.|.`.`._.T.T.[.=X1X1X1X1X1X1X#Xw.q.8. .o 2X",
"2XO f.`.`.|.|.|.|.|.|.`.`.`.T.T.U.K._.<X1X1X1X<X1X,XV.8.9.;.,   ",
"2X2 D._._.`./.F.`.`.`._._.T.T.U.U.K.[.,X*X:X1X*X(.}.H.9.6.5.9   ",
"  r P.T._._.g.p k._._._._.Y.U.U.K.K.Y.Y.H.(.:XP.w.w.q.9.6.4.z   ",
"  p U.Y.Y.T.k.; u._._.Y.Y.U.U.I.K.J.H.A.V.V.P.M.w.w.8.9.5.4.N   ",
"  p K.I.U.U.L.b i.Y.U.U.U.K.K.K.H.S.S.A.V.V.m.e.w.q.9.6.4.,.M   ",
"  7 G.K.I.I.U.L.I.U.U.K.K.K.K.J.H.S.A.A.V.m.m.e.w.8.6.6.,.L +   ",
"2X- x.J.K.K.K.K.K.K.K.K.J.J.H.S.S.A.A.V.M.m.e.w.8.6.6.4.I & .   ",
"2Xo r.J.H.J.J.B.m y.J.J.H.S.S.A.A.V.M.M.m.e.w.q.8.6.4.4.| N & 2X",
"2X  S S.S.S.S.S.t v S.S.A.S.A.A.V.M.m.m.e.w.q.8.+.C J ,.:.P . 2X",
"2X  2 p.A.A.A.S.! y N.A.A.A.V.M.M.m.m.e.0.q.8.+.1 5 L :.:.f   2X",
"2X2X  - n z.Z.V.b.v.Z.Z.Z.M.M.n.e.e.#.D w I 8.3.[ *.>.:.] + 2X2X",
"2X2X  . y 0.M...t g Q c.c.D 0 g 2.w.W 8 z O.6.4.,.:.-.=.9   2X2X",
"2X2X2X  g 0.m.$.D x h y 1.F V U 7.8.6.7.6.5.4.,.:.:.-.Z . 2X2X2X",
"2X2X2X2X. c 0.w.e.e.#., V w.q.8.8.6.6.5.4.4.>.:.:.:.K +   2X2X2X",
"2X2X2X2X2X. x 7.q.q.q.W U 9.9.9.6.5.5.4.,.:.:.:.-.H +   2X2X2X2X",
"2X2X2X2X2X2X. 8 o.8.8.8.6.6.5.5.5.4.4.4.:.:.-.%.k X   2X2X2X2X2X",
"2X2X2X2X2X2X2X  # B O.5.5.;.l } ,.>.:.:.:.%.G <   2X2X2X2X2X2X2X",
"2X2X2X2X2X2X2X2X2X  # f A I 6 , { &.| K j > .   2X2X2X2X2X2X2X2X",
"2X2X2X2X2X2X2X2X2X2X2X  . o +   + & + .   2X2X2X2X2X2X2X2X2X2X2X",
"2X2X2X2X2X2X2X2X2X2X2X2X2X2X2X2X2X2X2X2X2X2X2X2X2X2X2X2X2X2X2X2X"
};
