/* XPM */
static char * qjackctl_xpm[] = {
"32 32 15 1",
" 	c None",
".	c #000000",
"+	c #4C4C4C",
"@	c #666666",
"#	c #191919",
"$	c #B2B2B2",
"%	c #333333",
"&	c #999999",
"*	c #CCCCCC",
"=	c #827F00",
"-	c #E5E5E5",
";	c #7F0000",
">	c #7F7F7F",
",	c #FFFF00",
"'	c #FFFFFF",
"                                ",
" @..                            ",
" ..-.                           ",
" @..-.                          ",
"  @..-.+..                      ",
"   @..@.%%##                    ",
"    @.%&$&+#.                   ",
"   +.%=$$$&@##                  ",
"   +.@*$&$*&@#.                 ",
"   +#@&,$&$*$@.#                ",
"   @#%;&,*&&++=%.               ",
"    @#+%$,$@@*$&%#              ",
"     +#++$=&$=$*&%#             ",
"      +;%;+*,$&$&%%.            ",
"       +#%+$*,$@%%@%+           ",
"        +#;+&*=+;&*&.           ",
"         +##%@+#$=+=#           ",
"          +#%;%$=#>.+           ",
"           +##%=+&-'.           ",
"            +.;+=.>-'.          ",
"             @...@.>-'.         ",
"                  +#@-'.        ",
"                   @.>-'.       ",
"                    @.@@*.      ",
"                     @.>-$.     ",
"                      @.>@.>    ",
"                       @.#-.    ",
"                         +..    ",
"                                ",
"                                ",
"                                ",
"                                "};
